<svg width="1074" height="345" viewBox="0 0 1074 345" fill="none" xmlns="http://www.w3.org/2000/svg">
<path d="M40.9817 107.031C41.8069 107.571 42.4303 107.031 42.7033 107.031C43.9526 105.391 44.4556 104.005 44.6973 103.37C45.7849 100.515 44.8948 102.102 47.1818 97.2665C51.4695 88.2005 57.8927 85.34 61.2318 80.169C63.0673 77.3266 64.3081 74.4089 66.1026 69.3685C67.4605 65.5544 68.4462 59.0281 68.3538 53.3971C68.2856 49.2381 67.0406 43.8619 65.5732 34.8475C64.5989 28.8627 64.3215 28.2591 63.4761 24.5531C62.065 18.3671 62.1824 19.0827 58.4738 12.2446C54.1939 4.35316 49.3728 -2.39508 49.9885 0.81966C50.549 3.74616 50.9081 11.0085 49.9885 15.5756C48.3249 23.838 48.6117 23.3612 45.0769 31.2786C43.8224 34.0883 44.3875 33.7987 39.7856 42.4611C36.9484 47.8017 32.491 55.9516 31.1021 59.8297C28.9076 65.9569 26.9987 78.5857 28.7456 85.443C30.3767 91.8456 34.0024 98.1356 36.9027 103.37C38.2534 105.808 38.8807 105.655 40.9817 107.031Z" fill="url(#paint0_linear_17_2030)"/>
<path d="M12.3158 344V116.456H111.805C137.373 116.456 156.455 121.982 169.054 133.034C181.652 143.869 187.951 158.172 187.951 175.942C187.951 187.644 185.265 197.938 179.892 206.823C174.704 215.492 167.294 222.426 157.66 227.627C148.211 232.612 136.909 235.104 123.755 235.104L129.313 219.501C143.023 219.501 154.973 221.993 165.163 226.977C175.353 231.745 183.227 238.788 188.785 248.106C194.528 257.208 197.4 268.369 197.4 281.588C197.4 301.308 190.545 316.695 176.835 327.747C163.31 338.582 143.486 344 117.364 344H12.3158ZM66.785 297.516H112.917C122.366 297.516 129.499 295.674 134.316 291.99C139.318 288.089 141.819 282.238 141.819 274.436C141.819 266.635 139.318 260.892 134.316 257.208C129.499 253.307 122.366 251.357 112.917 251.357H62.8943V206.823H104.58C113.843 206.823 120.791 204.981 125.423 201.297C130.054 197.613 132.37 192.087 132.37 184.719C132.37 177.351 130.054 171.933 125.423 168.466C120.791 164.782 113.843 162.94 104.58 162.94H66.785V297.516Z" fill="url(#paint1_linear_17_2030)"/>
<path d="M65.2871 115.102C67.3312 117.772 64.8328 115.102 64.8328 115.102C64.8328 115.102 65.8214 116.178 65.9684 116.437C66.6288 117.47 67.1517 117.921 67.7002 119.042C68.0293 120.591 68.3936 121.944 68.3573 123.125C68.3189 124.372 68.0874 127.468 67.9909 129.792C67.8801 132.461 67.7972 134.248 67.3667 135.423C66.5638 137.614 66.0071 139.477 65.797 141.093C65.6116 142.52 65.2719 144.396 65.1389 145.995C65.0281 147.327 64.7682 148.707 64.6266 149.949C64.4445 151.547 64.0421 153.957 64.2624 157.822C64.4445 161.018 64.5329 164.272 64.7012 165.425C64.8833 166.672 65.2624 168.727 65.3593 170.325C65.5414 173.326 65.6345 177.96 64.7692 179.096C64.1483 179.911 63.5679 180.511 63.0876 180.508C62.8298 180.507 62.5115 180.477 62.2462 180.248C61.1493 179.3 59.8839 178.698 59.4699 177.28C59.1046 176.029 58.47 174.176 58.3378 172.378C58.2271 170.871 58.1842 168.549 57.6424 166.963C57.2749 165.888 56.7566 164.156 55.3333 163.957C54.4207 163.829 53.4578 163.675 52.9201 164.352C51.2769 166.419 50.5311 168.472 50.1459 170.372C49.7455 172.346 50.0173 174.079 48.7188 177.38C48.0606 179.052 47.8039 180.193 47.2566 181.158C46.4503 182.581 45.4949 184.383 44.477 184.377C44.2565 184.376 44.009 184.342 43.7815 184.117C42.6462 182.993 41.2782 180.948 41.4823 179.084C41.6282 177.752 41.6805 176.703 41.9222 175.427C42.361 173.11 42.8734 171.416 41.9167 170.013C41.332 169.156 40.6946 168.482 39.9762 168.212C39.0636 167.869 38.0783 167.667 37.0847 168.089C35.7706 168.647 34.4572 169.249 34.056 170.196C32.9141 172.893 31.697 178.038 32.3426 181.377C32.7079 183.267 33.7558 185.615 34.1701 187.564C34.463 188.941 35.2736 191.717 34.3127 193.106C34.1646 193.321 33.9444 193.447 33.727 193.404C33.2893 193.318 32.7758 193.142 32.4479 192.671C32.12 192.199 31.7981 191.606 31.5715 190.906C30.8694 188.74 29.8987 185.657 29.744 184.157C29.5619 182.39 29.1169 179.753 28.0229 179.002L28.0013 178.987C27.5644 178.687 26.941 178.259 26.5607 178.663C26.1965 179.05 25.9105 179.548 25.8312 180.083C25.6129 181.554 26.3672 183.525 25.795 185.975C25.4637 187.393 24.9828 188.835 24.2944 190.099C23.7086 191.175 21.8277 193.675 20.3805 192.887C19.9067 192.629 19.4718 192.238 19.1739 191.462C18.2986 189.183 17.9016 187.62 17.4199 186.391C16.7628 184.716 16.5659 183.158 15.2984 180.112C14.4944 178.18 13.289 177.247 12.7393 175.17C12.0065 172.403 11.4516 168.646 11.3889 166.437C11.2782 162.53 11.0264 158.385 11.3165 155.613C11.5019 153.843 11.8328 151.798 11.9747 150.671C12.1601 149.2 11.7002 146.248 11.9747 144.208C12.3389 141.501 12.9187 140.065 12.4464 137.798C11.6763 134.103 10.4487 131.985 10.2163 128.904C9.92561 125.05 9.67484 119.84 11.2452 117.568C12.0153 116.454 13.0229 115.625 14.026 115.554C17.0261 115.34 21.8126 115.159 22.9847 115.038C25.0513 114.824 27.9605 114.739 30.4098 114.522C31.8348 114.396 33.1507 114.204 34.5387 114.394C35.7881 114.566 37.2453 114.677 39.8819 114.868C41.6326 114.994 42.5311 115.364 44.1567 115.038C45.6605 114.736 48.4321 114.315 51.1858 114.35C54.7256 114.396 56.0251 114.755 57.3583 114.781C59.5565 114.824 64.3142 113.831 65.2871 115.102Z" fill="#F8F8F8"/>
<path d="M65.5231 114.456C65.0629 114.887 64.6027 115.318 64.1425 115.748C64.2109 115.821 64.2821 115.896 64.3501 115.967C64.5207 116.145 64.692 116.323 64.8711 116.504C64.9604 116.594 65.0521 116.686 65.1537 116.781C65.2038 116.829 65.2565 116.878 65.3248 116.936C65.3543 116.961 65.3991 116.997 65.4511 117.035C65.4848 117.059 65.5203 117.083 65.5757 117.115C65.617 117.138 65.6665 117.164 65.7484 117.193C65.8038 117.21 65.7925 117.215 65.9487 117.241C66.0806 117.257 66.3189 117.268 66.5904 117.104C66.8772 116.922 66.9822 116.678 67.0256 116.501C67.0659 116.321 67.052 116.207 67.041 116.123C67.0278 116.038 67.0115 115.985 66.9965 115.939C66.9622 115.841 66.9493 115.82 66.9325 115.783C66.8969 115.71 66.8768 115.675 66.8533 115.634C66.8046 115.55 66.7704 115.496 66.7312 115.435C66.6567 115.319 66.5837 115.211 66.5121 115.107C66.3627 114.89 66.2319 114.705 66.0811 114.494C65.4169 113.694 64.7285 113.625 64.1854 113.494C63.6225 113.39 63.105 113.36 62.5968 113.346C61.5846 113.323 60.6167 113.383 59.6728 113.451C58.8737 113.508 58.0574 113.578 57.3819 113.559C56.1065 113.486 54.4274 113.197 52.8926 113.143C52.611 113.129 52.3318 113.118 52.0519 113.109C51.7651 113.1 51.4886 113.093 51.2019 113.089C48.9956 113.061 46.8402 113.275 44.6991 113.643C44.4351 113.689 44.1703 113.738 43.9065 113.791C42.8306 114.05 41.7444 113.758 40.2116 113.619C40.131 113.612 40.0544 113.606 39.9734 113.6C38.1944 113.466 36.3987 113.362 34.7112 113.138C34.5414 113.115 34.3719 113.096 34.2031 113.082C32.7858 112.967 31.4826 113.159 30.298 113.261C29.9867 113.289 29.6735 113.314 29.3591 113.337C27.2322 113.497 25.0817 113.56 22.8543 113.779C22.3071 113.831 21.6517 113.864 21.0357 113.898C18.6846 114.025 16.3205 114.125 13.9358 114.29C12.2722 114.469 11.331 115.455 10.5806 116.341C10.4471 116.506 10.3213 116.675 10.202 116.847C9.39267 118.062 9.14969 119.269 8.96001 120.426C8.54699 123.391 8.74987 126.213 8.94939 128.999C9.02489 130.01 9.21537 131.009 9.46695 131.954C10.0689 134.145 10.8128 136.047 11.2134 138.055C11.3662 138.777 11.4019 139.468 11.3304 140.216C11.2194 141.361 10.9027 142.689 10.7298 144.04C10.6128 144.942 10.6201 145.77 10.6408 146.582C10.6739 147.982 10.8335 149.459 10.7287 150.514C10.6246 151.323 10.4945 152.173 10.3773 153.017C10.2638 153.83 10.1551 154.649 10.0675 155.482C9.98119 156.316 9.94856 157.128 9.93364 157.933C9.8921 160.835 10.0563 163.663 10.1305 166.473C10.15 167.148 10.2021 167.8 10.267 168.447C10.519 170.831 10.9029 173.154 11.5005 175.498C11.6523 176.084 11.8749 176.665 12.1443 177.198C12.8737 178.606 13.684 179.555 14.0898 180.615C14.2878 181.099 14.4734 181.579 14.6485 182.066C15.2163 183.573 15.5224 185.118 16.1823 186.877C16.3419 187.287 16.4893 187.734 16.638 188.194C17.0273 189.417 17.4394 190.699 17.9155 191.946C18.1254 192.506 18.487 193.127 19.0331 193.596C19.256 193.79 19.4982 193.952 19.7312 194.08C20.6078 194.594 21.7252 194.396 22.326 194.08C23.9845 193.162 24.6997 192.06 25.4909 190.751C25.8233 190.136 26.1005 189.507 26.3385 188.872C26.6584 188.016 26.9018 187.149 27.0965 186.279C27.249 185.602 27.3219 184.91 27.3323 184.237C27.3718 182.697 26.9979 181.137 27.1169 180.273C27.14 180.073 27.2802 179.783 27.5005 179.547C27.4939 179.554 27.4868 179.561 27.4794 179.569C27.3725 179.691 27.0785 179.798 26.9475 179.781C26.8104 179.775 26.8053 179.749 26.8372 179.76C26.9119 179.779 27.0959 179.88 27.3181 180.028C27.3183 180.029 27.3184 180.029 27.3186 180.029C27.4029 180.043 27.71 180.473 27.8733 180.941C28.2359 181.919 28.4367 183.108 28.5669 184.278C28.6496 184.989 28.7937 185.583 28.9406 186.189C29.38 187.938 29.9153 189.605 30.452 191.269C30.6431 191.859 30.9039 192.422 31.2249 192.948C31.3065 193.082 31.392 193.213 31.4813 193.342C31.9997 194.11 32.8799 194.45 33.4985 194.562C33.5579 194.573 33.618 194.582 33.6785 194.587C34.5225 194.634 35.0162 194.154 35.2829 193.778C35.5897 193.333 35.7488 192.861 35.8387 192.427C35.9062 192.097 35.9352 191.782 35.945 191.479C35.9777 189.913 35.5903 188.542 35.3247 187.318C35.1972 186.72 35.0346 186.158 34.8643 185.61C34.3751 184.039 33.7925 182.54 33.526 181.149C33.4492 180.733 33.4071 180.292 33.39 179.841C33.3238 176.821 34.0705 173.53 35.2277 170.692C35.2574 170.621 35.3649 170.478 35.5612 170.324C36.0281 169.953 36.802 169.615 37.5939 169.287C37.8458 169.186 38.095 169.147 38.394 169.166C38.7198 169.187 39.0999 169.287 39.5129 169.444C39.7296 169.521 40.0578 169.781 40.3598 170.141C40.518 170.326 40.6737 170.535 40.825 170.757C41.0287 171.06 41.1216 171.378 41.1355 171.846C41.1567 172.748 40.8507 173.955 40.623 175.181C40.5033 175.81 40.4197 176.444 40.3557 177.055C40.2873 177.706 40.2353 178.33 40.1679 178.94C40.0851 179.701 40.1926 180.424 40.3816 181.073C40.877 182.684 41.7541 183.939 42.8515 185.056C43.2434 185.499 44.075 185.731 44.4692 185.699C45.2463 185.695 45.7672 185.338 46.1114 185.063C46.447 184.785 46.6812 184.511 46.8931 184.242C47.5436 183.394 47.9689 182.574 48.406 181.81C48.8007 181.109 49.0313 180.429 49.2465 179.813C49.4806 179.13 49.6966 178.491 49.9442 177.862C50.1854 177.246 50.4005 176.618 50.5813 175.972C51.1405 174.132 51.1504 172.101 51.4364 170.633C51.5397 170.126 51.6666 169.629 51.8216 169.144C52.28 167.699 53.0114 166.37 53.9652 165.183C53.9667 165.191 53.9002 165.225 53.9479 165.206C53.9915 165.193 54.1356 165.176 54.326 165.187C54.5497 165.198 54.8302 165.237 55.1482 165.281C55.3043 165.303 55.4658 165.385 55.7115 165.764C55.9633 166.159 56.1651 166.722 56.3917 167.391C56.5716 167.909 56.6903 168.539 56.7756 169.183C56.914 170.225 56.965 171.311 57.0527 172.473C57.1097 173.188 57.2302 173.872 57.3774 174.534C57.6189 175.624 57.9561 176.671 58.2433 177.638C58.4653 178.433 58.973 179.157 59.4926 179.653C60.2135 180.344 60.9012 180.764 61.4111 181.214C61.9422 181.691 62.6838 181.794 63.0812 181.785C64.2401 181.693 64.5212 181.204 64.8828 180.916C65.1919 180.614 65.431 180.323 65.6576 180.035C65.7007 179.98 65.7432 179.925 65.7853 179.87C66.5501 178.657 66.4766 177.959 66.6152 177.14C66.8541 174.755 66.772 172.513 66.6599 170.246C66.6206 169.554 66.5451 168.893 66.4597 168.241C66.3253 167.214 66.1585 166.196 66.0224 165.232C65.9637 164.777 65.9307 164.185 65.8984 163.63C65.7935 161.697 65.7249 159.721 65.614 157.745C65.5889 157.294 65.5716 156.843 65.5626 156.392C65.5112 154.287 65.697 152.291 65.9864 150.104C66.025 149.768 66.0723 149.424 66.1225 149.074C66.2575 148.129 66.4162 147.146 66.5033 146.109C66.5271 145.823 66.5574 145.532 66.5919 145.239C66.7427 143.954 66.9729 142.649 67.1574 141.27C67.1854 141.056 67.2199 140.841 67.2597 140.624C67.5483 139.073 68.0825 137.481 68.6628 135.898C68.7462 135.671 68.8117 135.45 68.8666 135.234C69.2491 133.599 69.258 132.199 69.3398 130.777C69.3542 130.467 69.3677 130.158 69.3811 129.85C69.3858 129.743 69.3908 129.633 69.3959 129.525C69.4933 127.43 69.6635 125.36 69.7613 123.168C69.7619 123.148 69.7625 123.129 69.763 123.109C69.7701 121.425 69.3575 120.124 69.1023 118.846C69.0953 118.814 69.0884 118.781 69.0815 118.749L68.9686 118.421C68.4312 117.276 67.6005 116.403 67.1569 115.678L67.1954 115.742C67.0369 115.48 66.9967 115.451 66.9224 115.352C66.8557 115.268 66.7941 115.194 66.733 115.122C66.4403 114.776 66.1583 114.472 65.864 114.155C65.1765 114.786 64.4891 115.418 63.8016 116.05C64.0629 116.34 64.3351 116.653 64.576 116.939C64.6255 116.997 64.6733 117.055 64.7136 117.106C64.7457 117.143 64.8128 117.248 64.7415 117.133L64.78 117.197C65.4486 118.24 66.0874 118.898 66.4319 119.663L66.3189 119.336C66.3262 119.37 66.3336 119.404 66.3409 119.438C66.6219 120.764 66.9714 122.054 66.954 123.048C66.9538 123.059 66.9536 123.07 66.9532 123.082C66.8707 125.115 66.7056 127.267 66.6146 129.399C66.6098 129.51 66.605 129.624 66.6007 129.735C66.5885 130.042 66.5763 130.349 66.5634 130.654C66.4987 132.03 66.4521 133.456 66.188 134.558C66.1528 134.699 66.1135 134.83 66.0706 134.948C65.4732 136.602 64.9009 138.29 64.5592 140.131C64.5123 140.39 64.4709 140.651 64.4366 140.917C64.2686 142.199 64.0351 143.538 63.8724 144.919C63.8351 145.236 63.8015 145.556 63.7744 145.882C63.6999 146.778 63.5518 147.711 63.4118 148.686C63.3601 149.047 63.3096 149.416 63.2668 149.794C62.9894 151.896 62.7839 154.223 62.8513 156.451C62.8626 156.935 62.8827 157.417 62.9108 157.899C63.0258 159.846 63.0977 161.798 63.2145 163.788C63.2532 164.378 63.284 164.939 63.38 165.618C63.5415 166.649 63.721 167.622 63.8579 168.596C63.9444 169.21 64.0194 169.82 64.0588 170.404C64.1942 172.575 64.2857 174.804 64.0765 176.854C64.0391 177.186 63.9903 177.511 63.9251 177.796C63.871 178.068 63.7394 178.363 63.7531 178.322C63.7172 178.369 63.6816 178.415 63.6461 178.461C63.4614 178.697 63.2726 178.919 63.1045 179.082C63.0168 179.168 62.9319 179.236 62.892 179.26C62.8535 179.292 62.8674 179.239 63.094 179.231C62.8965 179.227 63.0064 179.209 63.0814 179.281C62.3846 178.683 61.7061 178.25 61.2781 177.826C60.9632 177.517 60.7931 177.25 60.6965 176.922C60.3887 175.884 60.0871 174.935 59.8783 173.98C59.7516 173.404 59.6595 172.834 59.623 172.284C59.5542 171.207 59.5224 170.042 59.3779 168.854C59.2846 168.109 59.1627 167.347 58.8931 166.536C58.6778 165.9 58.4467 165.135 57.9666 164.353C57.5507 163.645 56.6652 162.771 55.5185 162.633C55.2114 162.59 54.8662 162.536 54.4592 162.515C53.8318 162.468 52.6055 162.568 51.8749 163.521C50.744 164.944 49.858 166.602 49.3103 168.343C49.1245 168.927 48.9748 169.519 48.8554 170.11C48.493 172.127 48.5289 173.692 48.0487 175.263C47.8954 175.811 47.7083 176.354 47.4935 176.897C47.2192 177.588 46.9784 178.292 46.7518 178.95C46.5452 179.547 46.3472 180.087 46.1072 180.507C45.6639 181.288 45.2471 182.05 44.809 182.614C44.674 182.788 44.5357 182.936 44.4365 183.016C44.3295 183.11 44.3044 183.063 44.4847 183.055C44.3718 183.034 44.6769 183.105 44.7115 183.177C43.9097 182.376 43.2108 181.321 42.9202 180.333C42.8038 179.935 42.7602 179.555 42.7967 179.228C42.8682 178.579 42.9216 177.941 42.9856 177.332C43.0457 176.76 43.1186 176.214 43.2214 175.673C43.4248 174.5 43.7868 173.329 43.7791 171.777C43.7695 170.979 43.5335 170.015 43.0084 169.269C42.815 168.986 42.6055 168.703 42.3662 168.424C41.9028 167.894 41.3337 167.325 40.4396 166.979C39.8852 166.773 39.257 166.588 38.5473 166.548C37.9031 166.508 37.1939 166.619 36.5755 166.891C35.7524 167.26 34.8729 167.608 33.9513 168.335C33.5661 168.653 33.149 169.077 32.8844 169.7C31.6018 173.008 30.8653 176.332 30.9626 179.948C30.9898 180.493 31.0476 181.045 31.1593 181.606C31.5282 183.353 32.1528 184.834 32.6095 186.315C32.7686 186.824 32.9123 187.326 33.0155 187.809C33.3149 189.136 33.6158 190.337 33.5868 191.404C33.5806 191.603 33.5611 191.789 33.5277 191.951C33.4839 192.167 33.4143 192.333 33.3425 192.435C33.3698 192.408 33.4696 192.224 33.8731 192.236C33.9008 192.238 33.9284 192.242 33.9554 192.247C33.5927 192.175 33.4718 192.08 33.4146 191.999C33.3516 191.909 33.2913 191.816 33.2337 191.722C33.0072 191.351 32.8239 190.954 32.691 190.544C32.1603 188.899 31.6341 187.249 31.2272 185.623C31.0922 185.074 30.9684 184.506 30.9211 184.035C30.7868 182.748 30.6194 181.463 30.1464 180.105C29.8802 179.442 29.6542 178.694 28.7363 177.981C28.7334 177.979 28.7306 177.977 28.7277 177.975C28.5079 177.82 28.2477 177.612 27.8275 177.419C27.6126 177.326 27.3448 177.221 26.9381 177.214C26.5384 177.195 25.9755 177.407 25.6786 177.72C25.6588 177.739 25.6396 177.758 25.6209 177.778C25.1046 178.328 24.6839 179.019 24.5455 179.892C24.3598 181.786 24.7669 182.955 24.6913 184.179C24.6766 184.695 24.6124 185.189 24.4936 185.671C24.305 186.44 24.0756 187.193 23.8007 187.913C23.5964 188.448 23.3636 188.963 23.0979 189.447C22.6192 190.303 21.7401 191.329 21.1414 191.611C21.0426 191.659 20.9763 191.671 20.9732 191.673C20.9673 191.672 21.0255 191.686 21.0299 191.694C20.9341 191.644 20.8631 191.597 20.8026 191.546C20.6626 191.428 20.5422 191.258 20.4323 190.979C19.9712 189.801 19.58 188.617 19.1736 187.368C19.0172 186.894 18.8559 186.41 18.6575 185.906C18.1246 184.537 17.7415 182.787 17.1227 181.166C16.9294 180.64 16.7243 180.124 16.5071 179.609C15.9085 178.154 14.9369 177.023 14.4412 176.034C14.2418 175.646 14.0897 175.256 13.978 174.842C13.4096 172.693 13.0122 170.425 12.7746 168.192C12.713 167.588 12.6648 166.982 12.6474 166.401C12.5678 163.557 12.4044 160.731 12.445 157.977C12.4588 157.218 12.4907 156.465 12.5656 155.744C12.648 154.959 12.7533 154.164 12.8648 153.365C12.9806 152.53 13.1082 151.701 13.2207 150.828C13.3691 149.139 13.1725 147.861 13.1515 146.511C13.1307 145.762 13.1333 145.023 13.2196 144.375C13.3756 143.131 13.6834 141.907 13.8341 140.449C13.929 139.507 13.8804 138.482 13.6793 137.541C13.2442 135.345 12.4397 133.242 11.9184 131.308C11.6968 130.467 11.5443 129.644 11.4832 128.808C11.2882 126.085 11.1262 123.336 11.4852 120.806C11.6293 119.84 11.8822 118.879 12.2885 118.289C12.3736 118.165 12.4623 118.046 12.5544 117.932C13.0509 117.293 13.7438 116.82 14.1161 116.817C16.4427 116.655 18.804 116.553 21.1725 116.426C21.8095 116.39 22.4183 116.362 23.1151 116.297C25.1877 116.092 27.3628 116.024 29.5452 115.861C29.8696 115.838 30.195 115.812 30.5217 115.783C31.7891 115.669 32.9468 115.518 33.993 115.61C34.1187 115.62 34.243 115.634 34.3662 115.651C36.2237 115.898 38.0025 115.999 39.7904 116.135C39.8589 116.14 39.9237 116.145 39.9923 116.151C41.156 116.236 42.7921 116.659 44.4068 116.284C44.6466 116.236 44.8916 116.191 45.137 116.148C47.1332 115.804 49.1753 115.596 51.1697 115.612C51.4435 115.615 51.7068 115.619 51.9788 115.626C52.2443 115.633 52.5082 115.642 52.7734 115.654C54.2673 115.697 55.5848 115.935 57.3346 116.003C58.2713 116.003 59.0732 115.901 59.8838 115.821C60.8234 115.723 61.7425 115.607 62.6208 115.561C63.0576 115.538 63.4878 115.534 63.8626 115.573C64.2296 115.594 64.5532 115.758 64.4931 115.71C64.6497 115.902 64.7857 116.07 64.9291 116.256C64.9974 116.344 65.0654 116.434 65.1228 116.515C65.152 116.556 65.1774 116.592 65.196 116.621C65.2037 116.632 65.2101 116.644 65.2036 116.629C65.1994 116.619 65.1969 116.619 65.1746 116.555C65.1646 116.524 65.1515 116.484 65.14 116.409C65.1306 116.336 65.1166 116.231 65.1554 116.058C65.197 115.888 65.2994 115.648 65.5804 115.47C65.8463 115.31 66.0771 115.322 66.1996 115.337C66.3441 115.36 66.3315 115.365 66.3796 115.379C66.4489 115.404 66.4838 115.424 66.5087 115.437C66.5416 115.456 66.5526 115.465 66.5583 115.469C66.5666 115.476 66.5544 115.467 66.5435 115.459C66.5175 115.439 66.4801 115.407 66.4437 115.375C66.3681 115.308 66.286 115.231 66.2053 115.153C66.0424 114.996 65.8778 114.829 65.7164 114.66C65.6526 114.594 65.5819 114.519 65.5231 114.456ZM64.1425 115.748L65.5231 114.456L63.8016 116.05L65.864 114.155L64.1425 115.748Z" fill="white"/>
<path d="M209.32 343.746V278.706H232.12V343.746H209.32ZM220.72 271.506C216.56 271.506 213.2 270.346 210.64 268.026C208.08 265.706 206.8 262.826 206.8 259.386C206.8 255.946 208.08 253.066 210.64 250.746C213.2 248.426 216.56 247.266 220.72 247.266C224.88 247.266 228.24 248.386 230.8 250.626C233.36 252.786 234.64 255.586 234.64 259.026C234.64 262.626 233.36 265.626 230.8 268.026C228.32 270.346 224.96 271.506 220.72 271.506ZM246.937 343.746V278.706H268.657V297.666L265.417 292.266C267.337 287.386 270.457 283.746 274.777 281.346C279.097 278.866 284.337 277.626 290.497 277.626V298.146C289.457 297.986 288.537 297.906 287.737 297.906C287.017 297.826 286.217 297.786 285.337 297.786C280.697 297.786 276.937 299.066 274.057 301.626C271.177 304.106 269.737 308.186 269.737 313.866V343.746H246.937ZM330.938 344.826C322.618 344.826 316.138 342.786 311.498 338.706C306.858 334.546 304.538 328.306 304.538 319.986V264.186H327.338V319.746C327.338 322.066 327.978 323.906 329.258 325.266C330.538 326.546 332.178 327.186 334.178 327.186C336.898 327.186 339.218 326.506 341.138 325.146L346.778 341.106C344.858 342.386 342.498 343.306 339.698 343.866C336.898 344.506 333.978 344.826 330.938 344.826ZM295.058 298.146V281.106H342.218V298.146H295.058ZM397.93 277.626C402.97 277.626 407.53 278.666 411.61 280.746C415.69 282.746 418.89 285.866 421.21 290.106C423.61 294.346 424.81 299.826 424.81 306.546V343.746H402.01V310.266C402.01 305.626 401.05 302.266 399.13 300.186C397.29 298.026 394.69 296.946 391.33 296.946C388.93 296.946 386.73 297.506 384.73 298.626C382.73 299.666 381.17 301.306 380.05 303.546C378.93 305.786 378.37 308.706 378.37 312.306V343.746H355.57V254.706H378.37V297.186L373.09 291.786C375.57 287.066 378.97 283.546 383.29 281.226C387.61 278.826 392.49 277.626 397.93 277.626ZM440.205 343.746V259.746H478.605C486.285 259.746 492.885 260.986 498.405 263.466C504.005 265.946 508.325 269.546 511.365 274.266C514.405 278.906 515.925 284.426 515.925 290.826C515.925 297.146 514.405 302.626 511.365 307.266C508.325 311.826 504.005 315.346 498.405 317.826C492.885 320.226 486.285 321.426 478.605 321.426H453.405L463.965 311.466V343.746H440.205ZM492.165 343.746L471.285 313.146H496.605L517.605 343.746H492.165ZM463.965 313.986L453.405 303.066H477.165C482.125 303.066 485.805 301.986 488.205 299.826C490.685 297.666 491.925 294.666 491.925 290.826C491.925 286.906 490.685 283.866 488.205 281.706C485.805 279.546 482.125 278.466 477.165 278.466H453.405L463.965 267.546V313.986ZM562.033 344.826C554.353 344.826 547.633 343.386 541.873 340.506C536.193 337.546 531.753 333.546 528.553 328.506C525.433 323.386 523.873 317.586 523.873 311.106C523.873 304.626 525.393 298.866 528.433 293.826C531.553 288.706 535.833 284.746 541.273 281.946C546.713 279.066 552.833 277.626 559.633 277.626C566.033 277.626 571.873 278.946 577.153 281.586C582.433 284.146 586.633 287.946 589.753 292.986C592.873 298.026 594.433 304.146 594.433 311.346C594.433 312.146 594.393 313.066 594.313 314.106C594.233 315.146 594.153 316.106 594.073 316.986H542.593V304.986H581.953L573.313 308.346C573.393 305.386 572.833 302.826 571.633 300.666C570.513 298.506 568.913 296.826 566.833 295.626C564.833 294.426 562.473 293.826 559.753 293.826C557.033 293.826 554.633 294.426 552.553 295.626C550.553 296.826 548.993 298.546 547.873 300.786C546.753 302.946 546.193 305.506 546.193 308.466V311.946C546.193 315.146 546.833 317.906 548.113 320.226C549.473 322.546 551.393 324.346 553.873 325.626C556.353 326.826 559.313 327.426 562.753 327.426C565.953 327.426 568.673 326.986 570.913 326.106C573.233 325.146 575.513 323.706 577.753 321.786L589.753 334.266C586.633 337.706 582.793 340.346 578.233 342.186C573.673 343.946 568.273 344.826 562.033 344.826ZM689.665 277.626C694.705 277.626 699.185 278.666 703.105 280.746C707.105 282.746 710.225 285.866 712.465 290.106C714.785 294.346 715.945 299.826 715.945 306.546V343.746H693.145V310.266C693.145 305.626 692.265 302.266 690.505 300.186C688.745 298.026 686.345 296.946 683.305 296.946C681.145 296.946 679.185 297.466 677.425 298.506C675.665 299.546 674.305 301.146 673.345 303.306C672.385 305.386 671.905 308.106 671.905 311.466V343.746H649.105V310.266C649.105 305.626 648.225 302.266 646.465 300.186C644.785 298.026 642.385 296.946 639.265 296.946C637.025 296.946 635.025 297.466 633.265 298.506C631.585 299.546 630.225 301.146 629.185 303.306C628.225 305.386 627.745 308.106 627.745 311.466V343.746H604.945V278.706H626.665V296.826L622.345 291.666C624.745 287.026 628.025 283.546 632.185 281.226C636.345 278.826 640.985 277.626 646.105 277.626C651.945 277.626 657.065 279.146 661.465 282.186C665.945 285.146 668.945 289.786 670.465 296.106L663.025 294.546C665.345 289.266 668.825 285.146 673.465 282.186C678.185 279.146 683.585 277.626 689.665 277.626ZM730.336 343.746V278.706H753.136V343.746H730.336ZM741.736 271.506C737.576 271.506 734.216 270.346 731.656 268.026C729.096 265.706 727.816 262.826 727.816 259.386C727.816 255.946 729.096 253.066 731.656 250.746C734.216 248.426 737.576 247.266 741.736 247.266C745.896 247.266 749.256 248.386 751.816 250.626C754.376 252.786 755.656 255.586 755.656 259.026C755.656 262.626 754.376 265.626 751.816 268.026C749.336 270.346 745.976 271.506 741.736 271.506ZM810.313 277.626C815.353 277.626 819.913 278.666 823.993 280.746C828.073 282.746 831.273 285.866 833.593 290.106C835.993 294.346 837.193 299.826 837.193 306.546V343.746H814.393V310.266C814.393 305.626 813.433 302.266 811.513 300.186C809.673 298.026 807.073 296.946 803.713 296.946C801.313 296.946 799.113 297.506 797.113 298.626C795.113 299.666 793.553 301.306 792.433 303.546C791.313 305.786 790.753 308.706 790.753 312.306V343.746H767.953V278.706H789.673V297.186L785.473 291.786C787.953 287.066 791.353 283.546 795.673 281.226C799.993 278.826 804.873 277.626 810.313 277.626ZM880.648 344.826C874.728 344.826 869.328 343.466 864.448 340.746C859.648 337.946 855.808 334.066 852.928 329.106C850.048 324.066 848.608 318.066 848.608 311.106C848.608 304.226 850.048 298.306 852.928 293.346C855.808 288.306 859.648 284.426 864.448 281.706C869.328 278.986 874.728 277.626 880.648 277.626C886.248 277.626 890.968 278.826 894.808 281.226C898.728 283.626 901.688 287.306 903.688 292.266C905.688 297.226 906.688 303.506 906.688 311.106C906.688 318.866 905.728 325.226 903.808 330.186C901.888 335.146 899.008 338.826 895.168 341.226C891.328 343.626 886.488 344.826 880.648 344.826ZM885.448 326.706C888.008 326.706 890.288 326.106 892.288 324.906C894.368 323.706 896.008 321.946 897.208 319.626C898.408 317.226 899.008 314.386 899.008 311.106C899.008 307.826 898.408 305.066 897.208 302.826C896.008 300.506 894.368 298.746 892.288 297.546C890.288 296.346 888.008 295.746 885.448 295.746C882.808 295.746 880.448 296.346 878.368 297.546C876.368 298.746 874.768 300.506 873.568 302.826C872.368 305.066 871.768 307.826 871.768 311.106C871.768 314.386 872.368 317.226 873.568 319.626C874.768 321.946 876.368 323.706 878.368 324.906C880.448 326.106 882.808 326.706 885.448 326.706ZM899.728 343.746V332.586L899.848 311.106L898.648 289.626V254.706H921.448V343.746H899.728ZM970.197 344.826C962.517 344.826 955.797 343.386 950.037 340.506C944.357 337.546 939.917 333.546 936.717 328.506C933.597 323.386 932.037 317.586 932.037 311.106C932.037 304.626 933.557 298.866 936.597 293.826C939.717 288.706 943.997 284.746 949.437 281.946C954.877 279.066 960.997 277.626 967.797 277.626C974.197 277.626 980.037 278.946 985.317 281.586C990.597 284.146 994.797 287.946 997.917 292.986C1001.04 298.026 1002.6 304.146 1002.6 311.346C1002.6 312.146 1002.56 313.066 1002.48 314.106C1002.4 315.146 1002.32 316.106 1002.24 316.986H950.757V304.986H990.117L981.477 308.346C981.557 305.386 980.997 302.826 979.797 300.666C978.677 298.506 977.077 296.826 974.997 295.626C972.997 294.426 970.637 293.826 967.917 293.826C965.197 293.826 962.797 294.426 960.717 295.626C958.717 296.826 957.157 298.546 956.037 300.786C954.917 302.946 954.357 305.506 954.357 308.466V311.946C954.357 315.146 954.997 317.906 956.277 320.226C957.637 322.546 959.557 324.346 962.037 325.626C964.517 326.826 967.477 327.426 970.917 327.426C974.117 327.426 976.837 326.986 979.077 326.106C981.397 325.146 983.677 323.706 985.917 321.786L997.917 334.266C994.797 337.706 990.957 340.346 986.397 342.186C981.837 343.946 976.437 344.826 970.197 344.826ZM1013.11 343.746V278.706H1034.83V297.666L1031.59 292.266C1033.51 287.386 1036.63 283.746 1040.95 281.346C1045.27 278.866 1050.51 277.626 1056.67 277.626V298.146C1055.63 297.986 1054.71 297.906 1053.91 297.906C1053.19 297.826 1052.39 297.786 1051.51 297.786C1046.87 297.786 1043.11 299.066 1040.23 301.626C1037.35 304.106 1035.91 308.186 1035.91 313.866V343.746H1013.11Z" fill="white"/>
<defs>
<linearGradient id="paint0_linear_17_2030" x1="48.2118" y1="0" x2="48.2118" y2="107.271" gradientUnits="userSpaceOnUse">
<stop offset="0.177885" stop-color="#FFC107"/>
<stop offset="0.581731" stop-color="#FF8C00"/>
<stop offset="1" stop-color="#FF6B35"/>
</linearGradient>
<linearGradient id="paint1_linear_17_2030" x1="104.858" y1="116.456" x2="104.858" y2="344" gradientUnits="userSpaceOnUse">
<stop stop-color="#3B82F6"/>
<stop offset="0.3" stop-color="#8B5CF6"/>
<stop offset="0.7" stop-color="#EC4899"/>
<stop offset="1" stop-color="#F59E0B"/>
</linearGradient>
</defs>
</svg>
