<svg width="408" height="630" viewBox="0 0 408 630" fill="none" xmlns="http://www.w3.org/2000/svg">
<path d="M8.26538 630V210H223.065C278.265 210 319.465 220.2 346.665 240.6C373.865 260.6 387.465 287 387.465 319.8C387.465 341.4 381.665 360.4 370.065 376.8C358.865 392.8 342.865 405.6 322.065 415.2C301.665 424.4 277.265 429 248.865 429L260.865 400.2C290.465 400.2 316.265 404.8 338.265 414C360.265 422.8 377.265 435.8 389.265 453C401.665 469.8 407.865 490.4 407.865 514.8C407.865 551.2 393.065 579.6 363.465 600C334.265 620 291.465 630 235.065 630H8.26538ZM125.865 544.2H225.465C245.865 544.2 261.265 540.8 271.665 534C282.465 526.8 287.865 516 287.865 501.6C287.865 487.2 282.465 476.6 271.665 469.8C261.265 462.6 245.865 459 225.465 459H117.465V376.8H207.465C227.465 376.8 242.465 373.4 252.465 366.6C262.465 359.8 267.465 349.6 267.465 336C267.465 322.4 262.465 312.4 252.465 306C242.465 299.2 227.465 295.8 207.465 295.8H125.865V544.2Z" fill="url(#paint0_linear_15_1970)"/>
<path d="M120.631 211.455C125.045 216.384 119.651 211.455 119.651 211.455C119.651 211.455 121.785 213.441 122.102 213.919C123.528 215.826 124.657 216.659 125.841 218.727C126.552 221.586 127.338 224.084 127.26 226.263C127.177 228.565 126.677 234.279 126.469 238.57C126.23 243.495 126.051 246.795 125.121 248.963C123.388 253.007 122.186 256.446 121.732 259.429C121.332 262.062 120.599 265.525 120.311 268.477C120.072 270.936 119.511 273.482 119.205 275.775C118.812 278.725 117.944 283.173 118.419 290.308C118.812 296.206 119.003 302.213 119.366 304.34C119.76 306.642 120.578 310.436 120.787 313.385C121.181 318.925 121.381 327.478 119.513 329.574C118.173 331.079 116.92 332.185 115.883 332.181C115.326 332.178 114.639 332.123 114.066 331.7C111.698 329.95 108.966 328.84 108.072 326.223C107.283 323.914 105.913 320.493 105.628 317.175C105.389 314.392 105.296 310.107 104.126 307.18C103.333 305.194 102.214 301.999 99.141 301.631C97.1706 301.395 95.0918 301.111 93.9308 302.359C90.383 306.175 88.7729 309.965 87.9413 313.471C87.0769 317.115 87.6637 320.315 84.8602 326.406C83.4392 329.493 82.8848 331.598 81.7032 333.381C79.9625 336.006 77.8998 339.333 75.7019 339.322C75.2259 339.32 74.6915 339.257 74.2004 338.841C71.7492 336.768 68.7957 332.993 69.2364 329.553C69.5514 327.094 69.6644 325.158 70.1861 322.802C71.1334 318.525 72.2398 315.399 70.1743 312.809C68.912 311.226 67.5357 309.982 65.9847 309.484C64.0143 308.851 61.887 308.479 59.7419 309.258C56.9046 310.288 54.0691 311.399 53.203 313.147C50.7376 318.125 48.1097 327.621 49.5037 333.785C50.2923 337.272 52.5548 341.608 53.4493 345.204C54.0816 347.746 55.8317 352.871 53.7572 355.435C53.4374 355.83 52.9619 356.064 52.4925 355.985C51.5475 355.825 50.4389 355.501 49.731 354.63C49.0229 353.759 48.3281 352.665 47.8388 351.374C46.323 347.375 44.2271 341.685 43.8932 338.915C43.5 335.654 42.5393 330.787 40.1773 329.401L40.1306 329.373C39.1874 328.819 37.8415 328.029 37.0203 328.775C36.2341 329.489 35.6165 330.409 35.4454 331.395C34.9741 334.111 36.6026 337.749 35.3673 342.271C34.652 344.89 33.6136 347.551 32.1274 349.884C30.8627 351.869 26.8017 356.484 23.6773 355.03C22.6542 354.554 21.7153 353.831 21.0721 352.4C19.1822 348.194 18.3252 345.307 17.2852 343.04C15.8666 339.948 15.4415 337.071 12.7049 331.45C10.969 327.884 8.36661 326.161 7.17966 322.328C5.59763 317.22 4.39952 310.287 4.26427 306.209C4.02507 298.996 3.48144 291.346 4.10796 286.23C4.50821 282.962 5.22257 279.187 5.52895 277.108C5.92919 274.392 4.93625 268.944 5.5289 265.178C6.31518 260.181 7.56708 257.53 6.54728 253.347C4.88472 246.527 2.23434 242.617 1.73251 236.93C1.10491 229.817 0.563495 220.201 3.95402 216.006C5.61658 213.95 7.79191 212.42 9.95768 212.288C16.435 211.893 26.769 211.56 29.2996 211.336C33.7615 210.941 40.0426 210.785 45.3307 210.384C48.4072 210.151 51.2483 209.797 54.245 210.148C56.9425 210.465 60.0887 210.671 65.7811 211.022C69.5609 211.255 71.5007 211.938 75.0104 211.336C78.2573 210.779 84.2411 210.003 90.1865 210.067C97.829 210.151 100.635 210.815 103.513 210.862C108.259 210.941 118.531 209.109 120.631 211.455Z" fill="#F8F8F8"/>
<path d="M120.288 210.757C119.863 211.222 119.438 211.688 119.013 212.153C119.151 212.278 119.298 212.411 119.439 212.537C119.801 212.861 120.164 213.182 120.538 213.502C120.725 213.662 120.916 213.823 121.116 213.983C121.215 214.062 121.316 214.143 121.434 214.229C121.49 214.27 121.552 214.314 121.624 214.361C121.657 214.382 121.7 214.409 121.752 214.439C121.804 214.467 121.848 214.496 121.987 214.547C122.074 214.564 122.065 214.613 122.437 214.603C122.604 214.59 122.885 214.503 123.084 214.273C123.285 214.045 123.329 213.782 123.33 213.629C123.331 213.549 123.322 213.484 123.313 213.433C123.309 213.407 123.303 213.383 123.298 213.361C123.287 213.317 123.275 213.281 123.264 213.248C123.241 213.186 123.215 213.129 123.198 213.096C123.146 212.992 123.083 212.895 123.048 212.841C122.952 212.699 122.886 212.611 122.797 212.493C122.646 212.295 122.485 212.096 122.327 211.905C122.001 211.51 121.712 211.172 121.378 210.786C119.271 208.976 117.357 209.323 115.491 209.148C113.629 209.099 111.802 209.191 109.993 209.307C107.803 209.444 105.587 209.656 103.533 209.63C101.384 209.566 99.0416 209.21 96.7175 209.062C96.185 209.024 95.6522 208.99 95.1154 208.96C93.4784 208.87 91.8407 208.822 90.2003 208.802C87.164 208.767 84.145 208.936 81.1439 209.234C79.023 209.448 76.9048 209.724 74.7954 210.083C73.8486 210.246 72.9171 210.323 71.9699 210.304C70.0808 210.266 67.9953 209.868 65.8593 209.755C64.0355 209.642 62.2166 209.531 60.404 209.408C58.3826 209.269 56.3719 209.122 54.3926 208.891C53.3644 208.77 52.3359 208.727 51.3216 208.735C49.2293 208.752 47.2086 208.974 45.235 209.122C41.8817 209.374 38.497 209.515 35.1 209.691C33.1377 209.794 31.1697 209.902 29.188 210.075C24.7613 210.37 20.1439 210.503 15.6075 210.724C13.7004 210.813 11.7898 210.901 9.88 211.015C9.21315 211.055 8.57102 211.2 7.97264 211.411C5.85214 212.184 4.25689 213.623 2.96186 215.204C-0.57526 220.38 0.0120525 226.057 0.0728118 231.331C0.158103 233.245 0.305066 235.15 0.473372 237.041C0.811072 241.201 2.50258 244.947 3.77065 248.531C4.37465 250.223 4.90712 251.919 5.3267 253.645C5.83281 255.625 5.73325 257.587 5.31003 259.705C4.98227 261.399 4.5666 263.177 4.28831 264.982C3.89192 267.733 4.14327 270.301 4.27294 272.814C4.34865 274.247 4.44716 275.728 4.28651 276.925C4.04923 278.497 3.75813 280.118 3.49712 281.734C3.26375 283.17 3.04112 284.615 2.86116 286.077C2.27865 291.506 2.65727 296.756 2.84081 302C2.89923 303.42 2.95594 304.837 3.00092 306.25C3.19163 310.485 3.91182 314.522 4.83221 318.565C5.15717 319.953 5.51806 321.336 5.93932 322.713C6.64 325.124 8.20161 327.157 9.51756 328.882C10.3004 329.923 10.9892 330.936 11.516 332.029C12.752 334.554 13.7478 337.12 14.6388 339.829C15.0549 341.06 15.4908 342.341 16.0669 343.599C16.8703 345.385 17.5397 347.391 18.3189 349.35C18.7895 350.549 19.2782 351.747 19.8085 352.928C19.8134 352.939 19.8183 352.95 19.8233 352.961C20.4034 354.362 21.7158 355.682 23.1005 356.27C26.7382 357.61 29.1361 355.119 30.9112 353.501C31.7844 352.615 32.5603 351.694 33.2609 350.606C34.1877 349.135 34.9287 347.576 35.5396 345.986C35.9645 344.878 36.3249 343.752 36.6321 342.617C37.4193 339.846 37.1255 336.911 36.7869 334.397C36.6667 333.385 36.5479 332.42 36.6681 331.632C36.6693 331.624 36.6705 331.616 36.6718 331.608C36.7662 330.965 37.2172 330.238 37.8358 329.672C37.8379 329.67 37.8241 329.679 37.8147 329.682C37.7463 329.681 38.0334 329.661 38.3843 329.814C38.7386 329.954 39.1339 330.179 39.5705 330.434C40.996 331.315 41.8211 333.993 42.2881 336.297C42.4703 337.204 42.6122 338.128 42.7242 339.056C43.3289 342.746 44.5867 345.869 45.7435 349.132C46.0701 350.02 46.4028 350.91 46.7361 351.792C46.863 352.127 47.0047 352.457 47.16 352.779C47.6095 353.71 48.1696 354.579 48.8156 355.374C48.9246 355.508 49.0419 355.635 49.1654 355.753C49.6569 356.223 50.2348 356.542 50.7958 356.755C51.3066 356.95 51.8122 357.066 52.2962 357.148C53.3246 357.314 54.1829 356.788 54.6743 356.177C56.8089 353.097 55.7725 349.987 55.2345 347.359C55.0283 346.522 54.7917 345.693 54.5984 344.918C53.7477 341.613 52.3317 338.697 51.3356 335.736C51.0839 334.991 50.8587 334.246 50.6955 333.516C49.6276 327.778 51.2452 321.374 53.4484 315.731C53.7303 315.044 54.0321 314.369 54.3577 313.719C54.8292 312.769 56.5716 311.895 58.1779 311.254C58.8319 310.99 59.5065 310.742 60.1911 310.494C61.276 310.098 62.4624 310.05 63.6921 310.263C64.3133 310.369 64.9437 310.537 65.5805 310.742C66.3684 310.994 67.1441 311.533 67.855 312.211C68.3051 312.639 68.7322 313.122 69.1405 313.634C70.5576 315.249 69.9679 317.904 69.3326 320.616C69.1872 321.24 69.0373 321.874 68.8951 322.516C68.519 324.192 68.3236 325.889 68.1453 327.511C68.0749 328.142 68.0043 328.766 67.9249 329.385C67.5805 333.292 69.791 336.196 71.9521 338.541C72.3564 338.96 72.7778 339.361 73.2232 339.745C73.2644 339.781 73.3055 339.816 73.3465 339.851C74.0118 340.452 75.0473 340.666 75.6953 340.644C77.7041 340.566 78.7707 339.358 79.6638 338.44C80.5471 337.461 81.2492 336.44 81.9259 335.434C82.2243 334.988 82.515 334.544 82.8025 334.109C84.0784 332.134 84.6484 330.145 85.4525 328.321C85.647 327.862 85.8468 327.407 86.0547 326.956C87.9008 323.253 88.5615 318.756 88.9816 315.004C89.0496 314.585 89.1289 314.176 89.2246 313.775C90.0495 310.222 91.7284 306.955 94.0968 304.186C94.3618 303.874 94.6304 303.572 94.9101 303.27C95.2807 302.782 96.5036 302.671 97.839 302.822C98.2083 302.857 98.5898 302.903 98.9834 302.949C100.614 303.079 101.742 304.723 102.549 306.766C102.669 307.056 102.786 307.355 102.911 307.665C103.895 310.205 104.054 313.291 104.279 316.349C104.301 316.659 104.325 316.97 104.352 317.285C104.631 320.35 105.634 323.152 106.58 325.824C106.677 326.097 106.772 326.368 106.863 326.636C108.001 329.799 110.889 330.975 112.765 332.341C112.95 332.469 113.131 332.597 113.307 332.727C113.839 333.124 114.469 333.325 115.015 333.401C115.323 333.446 115.615 333.457 115.877 333.458C118.286 333.166 118.985 331.859 120.016 330.919C120.169 330.755 120.319 330.59 120.467 330.424C123.498 324.279 122.175 319.21 122.129 313.75C122.119 313.595 122.109 313.443 122.098 313.292C121.87 310.245 121.267 307.357 120.762 304.518C120.738 304.382 120.714 304.246 120.692 304.114C120.184 299.856 120.116 295.131 119.797 290.589C119.789 290.465 119.78 290.341 119.772 290.217C119.44 285.54 119.762 280.977 120.52 276.265C120.535 276.162 120.549 276.058 120.562 275.956C120.867 273.691 121.382 271.352 121.645 268.898C121.655 268.802 121.665 268.706 121.674 268.61C121.958 265.76 122.574 262.87 123.051 259.882C123.064 259.799 123.077 259.717 123.089 259.636C123.619 256.297 124.926 252.963 126.313 249.691C126.339 249.63 126.365 249.568 126.391 249.507C127.535 246.591 127.521 243.896 127.724 241.228C127.771 240.415 127.812 239.602 127.852 238.794C127.854 238.742 127.857 238.69 127.86 238.638C128.059 234.6 128.439 230.584 128.659 226.431C128.661 226.391 128.663 226.352 128.664 226.314C128.707 223.329 127.797 220.891 127.23 218.458C127.224 218.434 127.218 218.41 127.212 218.387L127.067 218.026C125.966 216.021 124.309 214.56 123.232 213.075L123.278 213.14C123.03 212.791 122.931 212.71 122.783 212.545C122.646 212.399 122.512 212.262 122.379 212.127C121.79 211.535 121.204 210.986 120.604 210.43C119.969 211.113 119.333 211.797 118.697 212.48C119.262 213.014 119.838 213.57 120.375 214.112C120.496 214.234 120.614 214.356 120.722 214.471C120.82 214.572 120.968 214.752 120.927 214.699L120.973 214.764C122.306 216.557 123.758 217.832 124.616 219.429L124.471 219.068C124.477 219.093 124.483 219.117 124.489 219.142C125.095 221.632 125.911 224.084 125.856 226.213C125.855 226.247 125.853 226.283 125.852 226.32C125.649 230.304 125.273 234.405 125.078 238.502C125.076 238.555 125.073 238.607 125.071 238.658C125.032 239.465 124.994 240.272 124.949 241.071C124.784 243.66 124.679 246.384 123.852 248.418C123.825 248.481 123.798 248.544 123.771 248.607C122.36 251.973 120.983 255.415 120.375 259.223C120.364 259.3 120.351 259.379 120.339 259.458C119.885 262.339 119.257 265.276 118.949 268.345C118.94 268.432 118.931 268.52 118.922 268.608C118.683 270.867 118.179 273.165 117.848 275.594C117.835 275.691 117.822 275.79 117.808 275.889C117.049 280.571 116.704 285.565 117.066 290.398C117.074 290.52 117.082 290.643 117.09 290.766C117.425 295.331 117.456 299.756 118.041 304.566C118.065 304.706 118.09 304.848 118.115 304.989C118.64 307.882 119.256 310.711 119.476 313.478C119.487 313.625 119.498 313.774 119.509 313.926C119.767 318.96 120.285 325.232 118.559 328.725C118.424 328.877 118.288 329.026 118.151 329.173C117.376 330.048 116.177 330.971 115.888 330.904C115.693 330.903 115.525 330.894 115.38 330.873C115.119 330.835 114.95 330.765 114.825 330.673C114.621 330.522 114.417 330.378 114.213 330.237C112.046 328.766 109.842 327.619 109.281 325.81C109.184 325.527 109.086 325.249 108.989 324.973C108.037 322.303 107.133 319.68 106.903 317.065C106.878 316.769 106.855 316.468 106.834 316.164C106.595 313.113 106.548 309.936 105.342 306.694C105.225 306.399 105.105 306.089 104.977 305.773C104.166 303.67 102.511 300.651 99.2987 300.313C98.9115 300.266 98.512 300.215 98.0983 300.174C96.6775 300.079 94.6339 299.763 92.9514 301.449C92.6441 301.779 92.3483 302.111 92.0559 302.456C89.441 305.501 87.5495 309.255 86.658 313.167C86.5463 313.64 86.4557 314.113 86.3799 314.581C85.8946 318.763 85.3858 322.316 83.6656 325.856C83.4455 326.334 83.2346 326.814 83.0311 327.294C82.2012 329.212 81.5743 331.189 80.6039 332.652C80.3098 333.095 80.0215 333.535 79.733 333.965C78.5249 335.811 76.7805 338.043 75.7085 338C75.2886 337.993 75.2066 337.948 75.0543 337.832C75.0196 337.802 74.9848 337.773 74.9498 337.742C74.5711 337.416 74.2057 337.068 73.8556 336.706C71.9286 334.7 70.2649 332.039 70.548 329.721C70.6305 329.078 70.703 328.437 70.7735 327.804C70.9528 326.171 71.1353 324.611 71.4771 323.088C71.614 322.469 71.7611 321.847 71.9082 321.217C72.4581 318.628 73.6069 314.966 71.2081 311.985C70.7432 311.402 70.2421 310.833 69.6783 310.295C68.7884 309.452 67.7197 308.656 66.389 308.226C65.6693 307.995 64.9191 307.793 64.1347 307.66C62.5926 307.389 60.8631 307.437 59.2926 308.021C58.5987 308.275 57.8969 308.535 57.1914 308.823C55.4582 309.62 53.4292 310.205 52.0482 312.575C51.694 313.299 51.3752 314.03 51.0782 314.767C48.7988 320.837 47.0592 327.258 48.3118 334.055C48.5084 334.91 48.7627 335.726 49.0362 336.521C50.1171 339.647 51.5416 342.555 52.3002 345.49C52.5162 346.339 52.7454 347.132 52.9417 347.928C53.5539 350.379 54.0014 353.241 52.84 354.693C52.7362 354.826 52.6273 354.823 52.6888 354.821C52.3056 354.757 51.9494 354.67 51.6369 354.551C51.2917 354.419 51.0066 354.25 50.7952 354.047C50.7416 353.996 50.6921 353.942 50.6465 353.886C50.1113 353.228 49.6499 352.51 49.285 351.754C49.1589 351.492 49.0441 351.226 48.9414 350.956C48.6082 350.079 48.2753 349.197 47.9523 348.319C46.8147 345.148 45.5545 341.846 45.0621 338.774C44.9439 337.795 44.7939 336.813 44.5975 335.833C43.9658 333.311 43.6546 330.458 40.784 328.367C39.8724 327.945 39.0186 326.892 36.908 327.436C36.6477 327.54 36.4028 327.697 36.2049 327.877C35.3 328.701 34.4903 329.767 34.219 331.183C34.2166 331.196 34.2142 331.209 34.2119 331.222C33.9972 332.503 34.1121 333.636 34.2229 334.694C34.5557 337.301 34.7512 339.661 34.1024 341.926C33.811 342.982 33.4716 344.021 33.0763 345.032C32.5082 346.484 31.8209 347.878 30.9939 349.162C30.4501 349.992 29.7332 350.841 28.9913 351.584C27.5033 353.119 25.3499 354.412 24.254 353.791C23.3198 353.36 22.7381 352.765 22.321 351.839C22.3162 351.828 22.3115 351.817 22.3067 351.807C21.7943 350.666 21.3007 349.519 20.8371 348.354C20.0651 346.445 19.4139 344.493 18.5036 342.481C17.9926 341.378 17.5829 340.199 17.164 338.971C16.2629 336.255 15.182 333.48 13.8939 330.871C13.2614 329.566 12.44 328.379 11.6224 327.301C10.223 325.483 8.99764 323.874 8.42 321.944C8.01324 320.643 7.65773 319.313 7.33864 317.974C6.43322 314.086 5.71036 310.071 5.52763 306.167C5.47836 304.74 5.41863 303.316 5.35914 301.895C5.16657 296.67 4.81119 291.392 5.35477 286.383C5.52762 284.975 5.74551 283.557 5.97623 282.137C6.23503 280.534 6.52235 278.94 6.77139 277.291C6.98607 275.596 6.85009 274.147 6.78058 272.671C6.64194 270.15 6.43392 267.636 6.7695 265.373C7.03328 263.66 7.4292 261.969 7.77768 260.173C8.23389 257.957 8.38093 255.384 7.76785 253.05C7.3249 251.225 6.76163 249.432 6.13987 247.688C4.81094 243.961 3.27371 240.476 2.99164 236.819C2.8277 234.947 2.68652 233.08 2.60551 231.219C2.45764 226.17 2.32555 220.449 4.94619 216.808C6.02216 215.48 7.37449 214.334 8.82233 213.819C9.22874 213.676 9.63735 213.586 10.0354 213.562C11.9228 213.445 13.8249 213.345 15.7256 213.256C20.2754 213.032 24.7758 212.907 29.4113 212.597C31.3297 212.429 33.2796 212.321 35.2309 212.219C38.6131 212.043 42.011 211.903 45.4264 211.646C47.4505 211.493 49.4214 211.281 51.341 211.266C52.2727 211.259 53.1919 211.299 54.0975 211.406C56.1541 211.647 58.1958 211.797 60.2312 211.938C62.0566 212.063 63.8778 212.176 65.7029 212.289C67.6956 212.391 69.6796 212.789 71.9219 212.846C73.027 212.869 74.1456 212.776 75.2253 212.589C77.2593 212.242 79.3323 211.972 81.3968 211.765C84.3201 211.474 87.2555 211.306 90.1727 211.333C91.7835 211.349 93.3855 211.392 94.9806 211.475C95.5036 211.503 96.0223 211.534 96.5407 211.57C98.8146 211.705 101.037 212.042 103.493 212.095C105.815 212.097 107.986 211.848 110.167 211.68C113.55 211.462 117.92 210.849 119.884 212.124C120.223 212.49 120.516 212.81 120.832 213.172C120.985 213.347 121.139 213.527 121.267 213.687C121.342 213.779 121.397 213.851 121.448 213.923C121.467 213.949 121.49 213.988 121.478 213.965C121.475 213.959 121.466 213.94 121.453 213.904C121.446 213.885 121.438 213.861 121.43 213.829C121.426 213.813 121.422 213.795 121.418 213.774C121.411 213.733 121.404 213.678 121.405 213.606C121.405 213.471 121.445 213.221 121.638 213.002C121.829 212.781 122.098 212.699 122.25 212.688C122.584 212.679 122.553 212.72 122.613 212.728C122.747 212.783 122.672 212.756 122.659 212.744C122.631 212.727 122.592 212.701 122.553 212.674C122.471 212.616 122.384 212.551 122.298 212.484C122.123 212.348 121.942 212.201 121.765 212.052C121.408 211.754 121.051 211.443 120.699 211.128C120.563 211.006 120.416 210.873 120.288 210.757ZM119.013 212.153L120.288 210.757L118.697 212.48L120.604 210.43L119.013 212.153Z" fill="white"/>
<path d="M55.1554 197.557C56.9372 198.554 58.2831 197.557 58.8726 197.557C61.5697 194.53 62.6557 191.971 63.1776 190.8C65.5257 185.53 63.604 188.46 68.5418 179.534C77.7989 162.8 91.6667 157.52 98.8759 147.976C102.839 142.729 105.518 137.343 109.392 128.04C112.324 121 114.452 108.954 114.252 98.56C114.105 90.8833 111.417 80.96 108.249 64.3213C106.146 53.2747 105.547 52.1604 103.721 45.32C100.675 33.9018 100.928 35.2228 92.9212 22.601C83.6809 8.03504 73.2721 -4.42083 74.6015 1.51292C75.8116 6.91464 76.5868 20.3194 74.6015 28.7493C71.0097 44 71.6289 43.12 63.9971 57.7339C61.2887 62.92 62.5087 62.3854 52.5731 78.3745C46.4476 88.2321 36.824 103.275 33.8253 110.433C29.0874 121.743 24.966 145.053 28.7376 157.71C32.2591 169.528 40.0871 181.138 46.349 190.8C49.2651 195.299 50.6195 195.018 55.1554 197.557Z" fill="url(#paint1_linear_15_1970)"/>
<defs>
<linearGradient id="paint0_linear_15_1970" x1="208.065" y1="210" x2="208.065" y2="630" gradientUnits="userSpaceOnUse">
<stop stop-color="#3B82F6"/>
<stop offset="0.3" stop-color="#8B5CF6"/>
<stop offset="0.7" stop-color="#EC4899"/>
<stop offset="1" stop-color="#F59E0B"/>
</linearGradient>
<linearGradient id="paint1_linear_15_1970" x1="70.7654" y1="0" x2="70.7654" y2="198" gradientUnits="userSpaceOnUse">
<stop offset="0.177885" stop-color="#FFC107"/>
<stop offset="0.581731" stop-color="#FF8C00"/>
<stop offset="1" stop-color="#FF6B35"/>
</linearGradient>
</defs>
</svg>
